<mxfile host="65bd71144e" modified="2020-11-01T01:31:12.205Z" agent="5.0 (Macintosh; Intel Mac OS X 10_15_7) AppleWebKit/537.36 (KHTML, like Gecko) Code/1.50.1 Chrome/83.0.4103.122 Electron/9.2.1 Safari/537.36" etag="Dco-IiKrIk4INabu7fyG" version="13.6.5">
    <diagram id="lRXgGadiFC9ybKc5_eL6" name="Page-1">
        <mxGraphModel dx="667" dy="829" grid="1" gridSize="10" guides="1" tooltips="1" connect="1" arrows="1" fold="1" page="1" pageScale="1" pageWidth="800" pageHeight="800" math="0" shadow="0">
            <root>
                <mxCell id="0"/>
                <mxCell id="1" parent="0"/>
                <mxCell id="MWVS0yfU9ljRbCC47P48-19" style="edgeStyle=orthogonalEdgeStyle;rounded=0;orthogonalLoop=1;jettySize=auto;html=1;exitX=0.5;exitY=1;exitDx=0;exitDy=0;entryX=0.5;entryY=0;entryDx=0;entryDy=0;fontFamily=Fira Code;startArrow=block;startFill=1;endArrow=none;endFill=0;" parent="1" source="MWVS0yfU9ljRbCC47P48-5" target="MWVS0yfU9ljRbCC47P48-1" edge="1">
                    <mxGeometry relative="1" as="geometry"/>
                </mxCell>
                <mxCell id="2" style="edgeStyle=orthogonalEdgeStyle;rounded=0;orthogonalLoop=1;jettySize=auto;html=1;exitX=0.5;exitY=0;exitDx=0;exitDy=0;entryX=0.5;entryY=1;entryDx=0;entryDy=0;entryPerimeter=0;endArrow=diamond;endFill=1;" parent="1" source="MWVS0yfU9ljRbCC47P48-12" target="MWVS0yfU9ljRbCC47P48-4" edge="1">
                    <mxGeometry relative="1" as="geometry"/>
                </mxCell>
                <mxCell id="MWVS0yfU9ljRbCC47P48-1" value="DSAGraph" style="swimlane;fontStyle=1;align=center;verticalAlign=top;childLayout=stackLayout;horizontal=1;startSize=26;horizontalStack=0;resizeParent=1;resizeParentMax=0;resizeLast=0;collapsible=1;marginBottom=0;fontFamily=Fira Code;" parent="1" vertex="1">
                    <mxGeometry x="50" y="160" width="700" height="420" as="geometry"/>
                </mxCell>
                <mxCell id="MWVS0yfU9ljRbCC47P48-2" value="- vertices: DSALinkedList&#10;- directed: Bool" style="text;strokeColor=none;fillColor=none;align=left;verticalAlign=top;spacingLeft=4;spacingRight=4;overflow=hidden;rotatable=0;points=[[0,0.5],[1,0.5]];portConstraint=eastwest;fontFamily=Fira Code;" parent="MWVS0yfU9ljRbCC47P48-1" vertex="1">
                    <mxGeometry y="26" width="700" height="34" as="geometry"/>
                </mxCell>
                <mxCell id="MWVS0yfU9ljRbCC47P48-3" value="" style="line;strokeWidth=1;fillColor=none;align=left;verticalAlign=middle;spacingTop=-1;spacingLeft=3;spacingRight=3;rotatable=0;labelPosition=right;points=[];portConstraint=eastwest;" parent="MWVS0yfU9ljRbCC47P48-1" vertex="1">
                    <mxGeometry y="60" width="700" height="8" as="geometry"/>
                </mxCell>
                <mxCell id="MWVS0yfU9ljRbCC47P48-4" value="+ addVertex(String inLabel, Object value)&#10;+ addEdge(String inSourceVertexLabel, String inSinkVertexLabel)&#10;+ getVertex(String inLabel): DSAGraphVertex vertex&#10;+ getNumVertices(): Integer numVertices&#10;+ getNumEdges(): Integer numEdges&#10;+ hasVertex(String inLabel): Bool hasVertex&#10;+ areNeighbours(String inSourceVertexLabel, String inSinkVertexLabel): Boolean areNeighbours&#10;+ bfs(): DSAQueue visited&#10;+ dfs(): DSAQueue visited&#10;+ displayPaths(String startVertexLabel, String endVertexLabel)&#10;+ displayList()&#10;+ displayMatrix()&#10;- _addEdge(String inSourceVertexLabel, String inSinkVertexLabel)&#10;- _hasVertex(String inLabel): Bool hasVertex&#10;- _areNeighbours(String inSourceVertexLabel, String inSinkVertexLabel): Boolean areNeighbours&#10;- _getVertex(String inLabel): DSAGraphVertex vertex&#10;- _getNumVertices(): Integer numVertices&#10;- _getNumEdges(): Integer numEdges&#10;- _markAllUnvisited()&#10;- _dfsVisit(DSAGraphVertex currentVertex, DSAQueue visited)&#10;- _displayPaths(DSAGraphVertex currentVertex, DSAGraphVertex endVertex)&#10;- _makeAdjList()&#10;- _makeAdjMatrix()&#10;- _printArray(String[][] array)&#10;&#10;" style="text;strokeColor=none;fillColor=none;align=left;verticalAlign=top;spacingLeft=4;spacingRight=4;overflow=hidden;rotatable=0;points=[[0,0.5],[1,0.5]];portConstraint=eastwest;fontFamily=Fira Code;" parent="MWVS0yfU9ljRbCC47P48-1" vertex="1">
                    <mxGeometry y="68" width="700" height="352" as="geometry"/>
                </mxCell>
                <mxCell id="MWVS0yfU9ljRbCC47P48-5" value="UnitTestDSAGraph" style="swimlane;fontStyle=1;align=center;verticalAlign=top;childLayout=stackLayout;horizontal=1;startSize=26;horizontalStack=0;resizeParent=1;resizeParentMax=0;resizeLast=0;collapsible=1;marginBottom=0;fontFamily=Fira Code;" parent="1" vertex="1">
                    <mxGeometry x="310" y="60" width="180" height="60" as="geometry"/>
                </mxCell>
                <mxCell id="MWVS0yfU9ljRbCC47P48-7" value="" style="line;strokeWidth=1;fillColor=none;align=left;verticalAlign=middle;spacingTop=-1;spacingLeft=3;spacingRight=3;rotatable=0;labelPosition=right;points=[];portConstraint=eastwest;" parent="MWVS0yfU9ljRbCC47P48-5" vertex="1">
                    <mxGeometry y="26" width="180" height="8" as="geometry"/>
                </mxCell>
                <mxCell id="MWVS0yfU9ljRbCC47P48-8" value="+ main()" style="text;strokeColor=none;align=left;verticalAlign=top;spacingLeft=4;spacingRight=4;overflow=hidden;rotatable=0;points=[[0,0.5],[1,0.5]];portConstraint=eastwest;fontFamily=Fira Code;" parent="MWVS0yfU9ljRbCC47P48-5" vertex="1">
                    <mxGeometry y="34" width="180" height="26" as="geometry"/>
                </mxCell>
                <mxCell id="MWVS0yfU9ljRbCC47P48-12" value="DSAGraphVertex" style="swimlane;fontStyle=1;align=center;verticalAlign=top;childLayout=stackLayout;horizontal=1;startSize=26;horizontalStack=0;resizeParent=1;resizeParentMax=0;resizeLast=0;collapsible=1;marginBottom=0;fontFamily=Fira Code;" parent="1" vertex="1">
                    <mxGeometry x="240" y="620" width="320" height="120" as="geometry"/>
                </mxCell>
                <mxCell id="MWVS0yfU9ljRbCC47P48-13" value="- label: StringÂ &#10;- neighbours: DSALinkedList&#10;- wasVisited: Bool" style="text;strokeColor=none;fillColor=none;align=left;verticalAlign=top;spacingLeft=4;spacingRight=4;overflow=hidden;rotatable=0;points=[[0,0.5],[1,0.5]];portConstraint=eastwest;fontFamily=Fira Code;" parent="MWVS0yfU9ljRbCC47P48-12" vertex="1">
                    <mxGeometry y="26" width="320" height="44" as="geometry"/>
                </mxCell>
                <mxCell id="MWVS0yfU9ljRbCC47P48-14" value="" style="line;strokeWidth=1;fillColor=none;align=left;verticalAlign=middle;spacingTop=-1;spacingLeft=3;spacingRight=3;rotatable=0;labelPosition=right;points=[];portConstraint=eastwest;" parent="MWVS0yfU9ljRbCC47P48-12" vertex="1">
                    <mxGeometry y="70" width="320" height="8" as="geometry"/>
                </mxCell>
                <mxCell id="MWVS0yfU9ljRbCC47P48-15" value="+ addNeighbour(DSAGraphVertex inNeighbour)&#10;+ wasVisited(): Bool visited&#10;" style="text;strokeColor=none;fillColor=none;align=left;verticalAlign=top;spacingLeft=4;spacingRight=4;overflow=hidden;rotatable=0;points=[[0,0.5],[1,0.5]];portConstraint=eastwest;fontFamily=Fira Code;" parent="MWVS0yfU9ljRbCC47P48-12" vertex="1">
                    <mxGeometry y="78" width="320" height="42" as="geometry"/>
                </mxCell>
            </root>
        </mxGraphModel>
    </diagram>
</mxfile>